<svg width="148" height="101" viewBox="0 0 148 101" fill="none" xmlns="http://www.w3.org/2000/svg">
<path d="M0 98.8661L11.3755 94.5985L50.4788 1.44708e-05H54.7446L95.2698 96.7323L102.38 98.8661V101H85.3163C80.3869 101 76.3581 99.9093 73.2298 97.7281C70.1015 95.4521 67.779 92.5121 66.2623 88.9084L59.0104 72.0751H25.0261L15.6413 94.5985L26.3058 98.8661V101H0V98.8661ZM26.448 68.5187H57.5885L41.9472 30.869L26.448 68.5187Z" fill="#0F4567"/>
<path d="M72.0448 95.3099L54.7446 11.2617L57.5885 9.60213L75.0072 48.3662H115.884L116.006 4.26761L107.475 2.1338V0H148V2.1338L139.468 4.26761V96.7324L148 98.8662V101H107.475V98.8662L116.006 96.7324L115.884 51.9225H76.4971L95.1513 96.7324L72.0448 95.3099Z" fill="#0F4567"/>
</svg>
